<svg width="64" height="67" viewBox="0 0 64 67" fill="none" xmlns="http://www.w3.org/2000/svg">
<path d="M64 3.35001V10.05C64 16.2693 61.5158 22.2339 57.0939 26.6317C52.672 31.0294 46.6746 33.5 40.4211 33.5H37.0526V36.85H53.8947V60.3C53.8947 62.077 53.185 63.7811 51.9216 65.0376C50.6582 66.2941 48.9446 67 47.1579 67H20.2105C18.4238 67 16.7103 66.2941 15.4469 65.0376C14.1835 63.7811 13.4737 62.077 13.4737 60.3V36.85H30.3158V26.8C30.3158 20.5807 32.8 14.6161 37.2219 10.2184C41.6438 5.82062 47.6412 3.35001 53.8947 3.35001H64ZM11.7895 8.2385e-06C15.8315 -0.003249 19.8151 0.959394 23.405 2.80689C26.9949 4.65438 30.0858 7.33264 32.4177 10.6162C28.8585 15.2679 26.9363 20.9546 26.9474 26.8V30.15H25.2632C18.563 30.15 12.1372 27.5029 7.39941 22.7911C2.66165 18.0792 0 11.6886 0 5.02501V8.2385e-06H11.7895Z" fill="#4CAF50"/>
</svg>
